<svg width="21" height="21" viewBox="0 0 21 21" fill="none" xmlns="http://www.w3.org/2000/svg">
<path d="M3.25728 3.1876C5.13944 1.26429 7.69028 0.182323 10.351 0.17872C13.0117 0.175117 15.5653 1.25018 17.4525 3.16838C18.4046 4.1039 19.1585 5.22958 19.6674 6.47553C20.1763 7.72149 20.4294 9.06113 20.4109 10.4113C20.4311 11.7623 20.1805 13.1032 19.6745 14.3514C19.1685 15.5995 18.4179 16.7285 17.4689 17.6686C16.5371 18.6223 15.4307 19.3788 14.2128 19.895C12.995 20.4111 11.6896 20.6768 10.3713 20.6768C9.05304 20.6768 7.74767 20.4111 6.52983 19.895C5.31199 19.3788 4.20555 18.6223 3.27374 17.6686C2.32432 16.7288 1.5734 15.6 1.06739 14.3517C0.561383 13.1035 0.311022 11.7624 0.331777 10.4113C0.306972 9.06613 0.554003 7.73022 1.0574 6.48722C1.5608 5.24422 2.30973 4.1209 3.25728 3.1876V3.1876ZM6.81254 14.0664C7.27672 14.5444 7.82903 14.9234 8.43747 15.1816C9.04592 15.4398 9.69841 15.5719 10.3571 15.5703C11.0159 15.5687 11.6677 15.4335 12.275 15.1725C12.8823 14.9114 13.4329 14.5298 13.8949 14.0496C14.3682 13.5766 14.7427 13.0103 14.9956 12.3848C15.2484 11.7594 15.3744 11.088 15.3658 10.4113C15.3375 9.07137 14.7971 7.79612 13.8604 6.85876C12.9238 5.92139 11.6654 5.39648 10.3549 5.39648C9.04436 5.39648 7.78598 5.92139 6.84933 6.85876C5.91269 7.79612 5.37229 9.07137 5.34391 10.4113C5.3369 11.0909 5.4642 11.765 5.71818 12.3931C5.97216 13.0212 6.34759 13.5903 6.82194 14.0664H6.81254Z" fill="white"/>
</svg>
