<svg width="21" height="21" viewBox="0 0 21 21" fill="none" xmlns="http://www.w3.org/2000/svg">
<path d="M15.0518 0.142578V1.58443C13.5262 0.671314 11.7909 0.188683 10.0232 0.185833C8.70684 0.164624 7.40007 0.418145 6.18276 0.930904C4.96544 1.44366 3.86315 2.20489 2.94325 3.16806C1.99333 4.10442 1.24194 5.23063 0.735822 6.47666C0.229704 7.72269 -0.0203235 9.06189 0.00129086 10.411C-0.0194639 11.7621 0.230898 13.1032 0.736908 14.3514C1.24292 15.5996 1.99383 16.7285 2.94325 17.6683C3.85959 18.6381 4.96065 19.4054 6.17838 19.9229C7.39612 20.4404 8.70467 20.697 10.0232 20.677C11.8741 20.6763 13.6874 20.1433 15.2562 19.139C15.4639 19.5826 15.7825 19.9623 16.1797 20.2396C16.5806 20.5279 17.0596 20.6808 17.5496 20.677H20.0592V0.142578H15.0518ZM11.8185 7.36866C11.9407 6.50115 12.6174 5.92681 13.3294 6.10944C14.0414 6.29208 14.5184 7.11874 14.3962 7.98385C14.274 8.84896 13.5973 9.4257 12.8853 9.24307C12.1733 9.06043 11.6963 8.23377 11.8185 7.36866ZM8.92585 4.4441C9.565 4.00193 10.4391 4.29511 10.8785 5.09774C11.318 5.90037 11.1582 6.91448 10.519 7.35664C9.87987 7.79881 9.00809 7.50804 8.56868 6.703C8.12927 5.89797 8.28905 4.90069 8.92585 4.4441ZM5.65727 5.88595C6.29642 5.44379 7.17055 5.73456 7.60996 6.53959C8.04937 7.34463 7.88959 8.35633 7.25044 8.7985C6.61129 9.24066 5.73951 8.94989 5.3001 8.14486C4.86069 7.33982 5.02047 6.34254 5.65727 5.89557V5.88595ZM6.53375 12.0547C6.16953 12.7035 5.3048 12.8237 4.60221 12.3238C3.89962 11.824 3.62704 10.882 3.99126 10.2452C4.35548 9.60834 5.22021 9.47617 5.9228 9.97601C6.62539 10.4759 6.90032 11.4155 6.53375 12.0643V12.0547ZM14.3774 13.7368C13.4939 14.4289 12.1968 13.6311 11.1253 14.0973C10.0397 14.5226 9.64489 16.0198 8.54048 16.1471C7.43607 16.2745 6.59014 15.0465 7.60056 12.8116C8.25851 11.3073 8.07522 10.0193 9.29007 9.48097C10.5284 9.00035 11.2733 10.0649 12.7983 10.6825C15.0377 11.5717 15.2609 13.0568 14.3774 13.7465V13.7368Z" fill="white"/>
</svg>
