<svg width="15" height="26" viewBox="0 0 15 26" fill="none" xmlns="http://www.w3.org/2000/svg">
<path d="M10.0395 18.1218H14.9999C15.011 19.4771 14.6687 20.8109 14.0083 21.986C13.3599 23.1506 12.4135 24.1127 11.2708 24.7687C10.1266 25.439 8.82975 25.7888 7.51114 25.7829C6.66142 25.7861 5.81715 25.644 5.0133 25.3623C3.54854 24.8353 2.28055 23.8551 1.38533 22.5576C0.490118 21.2601 0.0120974 19.7098 0.0176255 18.1218V0.098663H2.48022C2.92564 0.0964343 3.36332 0.217681 3.74675 0.449514C4.12855 0.678288 4.44653 1.00347 4.67024 1.39393C4.8963 1.78709 5.01403 2.23551 5.01094 2.69159V5.31817H14.9999V10.3815H5.01094V18.6457C5.1373 19.2764 5.48817 19.8366 5.99551 20.2178C6.50285 20.599 7.13053 20.7739 7.75682 20.7086C8.38311 20.6434 8.9634 20.3426 9.38517 19.8647C9.80693 19.3867 10.0401 18.7656 10.0395 18.1218Z" fill="white"/>
</svg>
