<svg width="21" height="26" viewBox="0 0 21 26" fill="none" xmlns="http://www.w3.org/2000/svg">
<path d="M20.5337 8.3299C20.8543 9.87419 20.8133 11.4741 20.4139 12.9991C20.0507 14.4538 19.3792 15.8091 18.4471 16.969C17.5145 18.1056 16.3542 19.0242 15.0446 19.6629C13.575 20.3942 11.9502 20.7387 10.3175 20.6653C8.68478 20.5919 7.09581 20.1027 5.69472 19.2423V23.2651C5.69852 23.6034 5.63531 23.9389 5.50891 24.2516C5.38251 24.5642 5.19553 24.8475 4.95923 25.0842C4.72898 25.3335 4.45037 25.5309 4.14123 25.6637C3.83209 25.7966 3.49924 25.8619 3.16398 25.8556H0.694336V0.142578H5.69472V1.58443C6.89754 0.832681 8.24769 0.361511 9.64895 0.2045C11.0502 0.047489 12.4681 0.208502 13.8015 0.676063C15.4949 1.22343 17.0133 2.22602 18.198 3.57899C19.3932 4.9099 20.202 6.55506 20.5337 8.3299V8.3299ZM7.15865 14.0661C7.86466 14.7824 8.76218 15.269 9.73812 15.4645C10.7141 15.6601 11.7248 15.5559 12.6429 15.165C13.5611 14.7742 14.3455 14.1142 14.8975 13.2682C15.4495 12.4222 15.7443 11.428 15.7448 10.411C15.7448 9.04706 15.215 7.73902 14.272 6.7746C13.329 5.81017 12.0499 5.26836 10.7163 5.26836C9.38259 5.26836 8.10355 5.81017 7.16051 6.7746C6.21747 7.73902 5.68767 9.04706 5.68767 10.411C5.67974 11.0901 5.80593 11.7639 6.05869 12.3919C6.31145 13.02 6.68558 13.5894 7.15865 14.0661V14.0661Z" fill="white"/>
</svg>
