<svg width="20" height="21" viewBox="0 0 20 21" fill="none" xmlns="http://www.w3.org/2000/svg">
<path d="M14.5342 13.2757C14.0241 14.1687 13.2521 14.8749 12.3278 15.2943C11.4061 15.7276 10.3758 15.8577 9.37877 15.6668C8.40508 15.4939 7.50143 15.0356 6.77754 14.3475L19.9529 8.31337L19.7978 7.61648C19.7803 7.48698 19.7496 7.35972 19.7062 7.23679C19.6267 6.94363 19.5262 6.65688 19.4054 6.37889C18.9998 5.43253 18.444 4.56128 17.7605 3.80038C16.3834 2.1413 14.5048 0.998921 12.4218 0.553807C10.3232 0.0632957 8.12503 0.29562 6.16894 1.21466C4.86305 1.80653 3.69636 2.67774 2.74746 3.76961C1.79856 4.86148 1.08951 6.14864 0.668048 7.54439C0.259104 8.92011 0.134274 10.3678 0.301479 11.7954C0.499919 13.4913 1.11779 15.1074 2.09673 16.4911C2.99526 17.8005 4.18264 18.8752 5.56278 19.6282C6.94291 20.3811 8.47701 20.7912 10.0409 20.8251C11.6048 20.859 13.1545 20.5159 14.5646 19.8235C15.9747 19.1311 17.2056 18.1088 18.1576 16.8395C18.9479 15.7756 19.5296 14.5655 19.8706 13.2757H14.5342ZM6.28173 7.30408C6.77694 6.6542 7.42314 6.14121 8.16157 5.81176C8.89719 5.4681 9.70413 5.3146 10.5114 5.36479C11.3049 5.41525 12.0773 5.64681 12.7719 6.04246L5.28071 9.46685C5.45346 8.67894 5.79539 7.94018 6.28173 7.30408V7.30408Z" fill="white"/>
</svg>
