<svg width="21" height="26" viewBox="0 0 21 26" fill="none" xmlns="http://www.w3.org/2000/svg">
<path d="M17.4622 0H20.202V23.1177C20.2053 23.4559 20.1419 23.7913 20.0155 24.1039C19.8891 24.4164 19.7024 24.6997 19.4666 24.9368C19.2414 25.1828 18.9686 25.3782 18.6656 25.5106C18.3626 25.643 18.036 25.7095 17.7066 25.7058H15.2087V24.2351C13.6909 25.172 11.953 25.6703 10.1801 25.677C8.86163 25.6967 7.55316 25.44 6.33546 24.9225C5.11777 24.405 4.01668 23.6379 3.10017 22.6683C2.16642 21.717 1.42579 20.5863 0.920899 19.3412C0.416005 18.0962 0.156806 16.7613 0.158209 15.4134C0.158826 14.0683 0.418572 12.7365 0.922613 11.4941C1.42665 10.2518 2.16511 9.12309 3.09579 8.17265C4.02647 7.2222 5.13115 6.46859 6.3467 5.95487C7.56226 5.44115 8.86487 5.17739 10.1801 5.17865C11.9478 5.18184 13.683 5.66445 15.2087 6.57725V2.30696C15.2087 1.69553 15.4461 1.10911 15.8686 0.676543C16.2911 0.243972 16.8643 0.000636905 17.4622 0V0ZM15.2087 15.5672V15.2524C15.1921 14.3678 14.9437 13.5039 14.4897 12.7508C14.0443 12.0038 13.421 11.3845 12.678 10.9509C11.912 10.5116 11.0479 10.2824 10.1697 10.2853C9.29154 10.2882 8.42901 10.5233 7.66584 10.9677C6.90685 11.4182 6.27591 12.0635 5.83534 12.8397C5.27633 13.818 5.05036 14.9582 5.1928 16.0819C5.33525 17.2055 5.83807 18.2491 6.62252 19.0493C7.55278 20.0137 8.81947 20.5607 10.1441 20.5702C11.4687 20.5797 12.7427 20.0507 13.686 19.0997C14.1548 18.6425 14.5307 18.095 14.792 17.4888C15.0533 16.8826 15.1949 16.2296 15.2087 15.5672V15.5672Z" fill="white"/>
</svg>
